<?xml version="1.0" encoding="utf-8"?>
<!-- Generator: Adobe Illustrator 18.0.0, SVG Export Plug-In . SVG Version: 6.00 Build 0)  -->
<!DOCTYPE svg PUBLIC "-//W3C//DTD SVG 1.1//EN" "http://www.w3.org/Graphics/SVG/1.1/DTD/svg11.dtd">
<svg version="1.1" id="Слой_1" xmlns="http://www.w3.org/2000/svg" xmlns:xlink="http://www.w3.org/1999/xlink" x="0px" y="0px"
	 viewBox="0 0 420 420" enable-background="new 0 0 420 420" xml:space="preserve">
<path fill="#16162F" d="M240.6,250.6c5.6,0,10.2-4.6,10.2-10.2c0-5.6-4.6-10.2-10.2-10.2c-5.6,0-10.2,4.6-10.2,10.2
	C230.4,246,235,250.6,240.6,250.6z"/>
<path fill="#16162F" d="M192.6,240.4c0-5.6-4.6-10.2-10.2-10.2c-5.6,0-10.2,4.6-10.2,10.2c0,5.6,4.5,10.2,10.2,10.2
	C188.1,250.6,192.6,246,192.6,240.4z"/>
<path fill="#16162F" d="M163.1,264.5c0,28.1,22.8,51,50.9,51c28.1,0,50.9-22.8,50.9-51c0,0,0.1-0.8-3,0.2c-3.2,1-6.2,4.2-14.6,4.2
	c-8.3,0-16.7-4.2-16.7-4.2s-7.3-4.2-17.7-4.2c-10.4,0-17.7,4.2-17.7,4.2s-7.3,4.2-15.6,4.2c-8.3,0-10.9-3.6-13.4-4.2
	C163.9,264.1,163.1,264.5,163.1,264.5z"/>
<path fill="#16162F" d="M287.4,182.3H146v27.1h127.9v54.5c0,32.8-26.7,59.5-59.5,59.5c-32.8,0-59.5-26.7-59.5-59.5v-0.4
	c0-20.9-17-38-38-38c-20.9,0-38,17-38,38c0,20.9,17,38,38,38v-27c-6,0-10.9-4.9-10.9-10.9c0-6,4.9-10.9,10.9-10.9
	c6,0,10.9,4.9,10.9,10.9v0.4c0,47.7,38.8,86.5,86.5,86.5c47.7,0,86.5-38.8,86.5-86.5v-68C301,188.4,294.9,182.3,287.4,182.3z"/>
<path fill="#16162F" d="M280.1,168.8c0,0-7.1-10.3-7.1-25.1c0-14.7,7.1-25.1,7.1-25.1s7.1-10.3,7.1-22.1c0-11.8-6.1-15.4-7.1-18.9
	h-22.2c1,3.5,7.1,7.1,7.1,18.9c0,11.8-7.1,22.1-7.1,22.1s-7.1,10.3-7.1,25.1c0,14.7,7.1,25.1,7.1,25.1L280.1,168.8z"/>
<path fill="#16162F" d="M223.1,168.8c0,0-7.1-10.3-7.1-25.1s7.1-25.1,7.1-25.1s7.1-10.3,7.1-22.1s-6-15.4-7.1-19h-22.2
	c1,3.5,7.1,7.2,7.1,19s-7.1,22.1-7.1,22.1s-7.1,10.3-7.1,25.1c0,14.7,7.1,25,7.1,25L223.1,168.8L223.1,168.8z"/>
<path fill="#16162F" d="M167.1,168.8c0,0-7.1-10.3-7.1-25.1s7.1-25.1,7.1-25.1s7-10.3,7-22.1s-6-15.4-7-19h-22.3
	c1,3.5,7.1,7.2,7.1,19s-7.1,22.1-7.1,22.1s-7.1,10.3-7.1,25.1c0,14.7,7.1,25,7.1,25H167.1z"/>
</svg>
